<?xml version="1.0" standalone="no"?>
<!DOCTYPE svg PUBLIC "-//W3C//DTD SVG 20010904//EN"
 "http://www.w3.org/TR/2001/REC-SVG-20010904/DTD/svg10.dtd">
<svg version="1.0" xmlns="http://www.w3.org/2000/svg"
 width="3000.000000pt" height="2000.000000pt" viewBox="0 0 3000.000000 2000.000000"
 preserveAspectRatio="xMidYMid meet">

<g transform="translate(0.000000,2000.000000) scale(0.100000,-0.100000)"
fill="#000000" stroke="none">
<path d="M11693 17339 c-275 -32 -558 -175 -743 -376 -189 -206 -295 -449
-320 -736 -6 -71 -8 -1461 -4 -3866 5 -3110 8 -3758 19 -3770 11 -11 18 -7 41
30 16 24 33 53 39 64 6 11 33 61 60 110 48 90 95 156 95 136 0 -6 -8 -19 -17
-29 -21 -21 -63 -102 -63 -119 0 -6 -3 -13 -7 -15 -5 -1 -19 -23 -32 -48 -14
-25 -42 -74 -63 -109 -43 -72 -45 -80 -20 -120 l18 -30 124 252 c68 139 123
258 121 265 -1 6 2 12 7 12 5 0 21 27 36 60 15 32 31 62 35 65 5 3 7 15 4 28
-3 12 -2 19 2 15 4 -4 30 39 58 95 27 56 53 104 57 107 28 21 33 151 10 289
-5 33 -7 12 -7 -77 0 -78 -4 -126 -11 -131 -12 -7 -62 -104 -62 -120 0 -6 -5
-11 -11 -11 -6 0 -8 -7 -5 -17 4 -10 4 -14 0 -10 -10 10 -46 -62 -38 -76 4 -7
4 -9 0 -5 -5 4 -32 -41 -60 -100 -52 -105 -53 -106 -59 -72 -3 19 -6 276 -6
570 -1 294 -7 1487 -13 2650 -7 1163 -13 2552 -13 3085 0 972 1 999 32 1085 4
8 8 24 10 34 9 47 108 227 161 293 63 78 179 179 266 231 67 41 176 86 276
115 l75 22 3105 3 c2299 2 3130 0 3200 -8 114 -14 229 -49 325 -98 76 -39 186
-115 224 -156 14 -14 30 -26 38 -26 7 0 13 -6 13 -13 0 -8 11 -24 25 -37 34
-32 114 -154 147 -222 41 -87 76 -207 88 -299 12 -100 14 -6658 2 -6643 -4 5
-13 25 -19 44 -136 425 -173 525 -253 692 -43 90 -64 112 -93 94 -16 -9 -25
-4 -68 42 -52 56 -104 139 -132 210 -10 24 -59 114 -111 200 -51 86 -99 168
-106 181 -10 19 -14 21 -22 10 -8 -11 -9 -10 -4 4 3 10 -5 35 -20 59 -19 29
-24 49 -20 69 7 37 0 37 -17 2 -14 -29 -12 -67 3 -58 4 3 8 -1 7 -8 -1 -34 4
-48 15 -41 6 4 8 3 4 -4 -8 -13 39 -103 50 -94 4 4 4 1 0 -6 -5 -8 1 -23 15
-39 13 -15 18 -23 10 -18 -10 5 -8 -2 5 -23 13 -23 21 -28 27 -19 6 8 7 6 3
-6 -7 -20 25 -90 57 -124 11 -13 17 -23 13 -23 -4 0 5 -17 19 -37 14 -21 25
-44 25 -53 0 -8 10 -51 21 -95 27 -104 27 -106 28 -130 1 -13 4 -16 9 -8 4 6
7 -9 8 -33 1 -25 6 -50 12 -56 18 -18 0 -38 -102 -113 -52 -38 -98 -76 -101
-84 -3 -8 8 -55 24 -105 16 -50 75 -233 131 -406 161 -496 337 -1021 386
-1152 25 -65 27 -68 58 -68 18 0 59 13 90 29 l56 28 -2 -2836 -3 -2836 -24
-85 c-13 -47 -34 -109 -47 -139 -13 -29 -24 -60 -24 -67 0 -8 -3 -14 -7 -14
-9 0 -43 -57 -43 -70 0 -4 -13 -23 -29 -42 -16 -18 -51 -59 -78 -90 -138 -159
-357 -279 -563 -308 -47 -6 -4609 11 -5880 23 -386 4 -421 5 -498 25 -314 82
-549 276 -682 565 -43 94 -65 175 -80 297 -7 56 -10 970 -10 2760 l0 2675 -30
-52 c-17 -29 -30 -63 -30 -75 0 -13 -18 -49 -40 -82 -22 -32 -38 -62 -35 -66
3 -4 -2 -14 -11 -21 -9 -7 -25 -32 -36 -56 -17 -36 -25 -43 -49 -43 l-29 0 3
-2577 c2 -1418 7 -2598 11 -2623 4 -25 11 -54 16 -65 5 -11 14 -40 21 -65 6
-25 14 -49 19 -55 4 -5 10 -23 14 -39 4 -16 16 -41 27 -54 10 -14 19 -33 19
-44 0 -10 6 -21 14 -24 8 -3 18 -18 21 -34 3 -15 17 -38 31 -50 13 -13 24 -30
24 -38 0 -8 29 -46 65 -84 36 -39 71 -82 78 -97 7 -14 18 -26 24 -26 7 0 20
-10 28 -22 9 -13 20 -23 26 -23 5 0 27 -18 50 -39 24 -24 46 -38 55 -34 9 3
14 0 12 -8 -2 -7 11 -17 27 -23 17 -6 36 -18 42 -27 18 -24 257 -116 355 -136
77 -16 290 -17 3158 -20 2148 -2 3099 0 3155 7 205 28 261 39 335 67 8 3 24 8
34 10 11 2 28 11 38 20 10 8 26 16 35 17 26 2 141 63 150 80 4 8 13 15 18 17
26 5 44 16 95 57 30 25 54 49 53 53 -2 5 4 9 12 9 8 0 20 10 26 23 6 12 35 47
64 77 29 31 55 65 59 77 4 12 18 35 31 50 29 34 135 237 135 259 0 8 7 25 15
38 14 21 22 52 42 166 3 19 7 1346 9 2949 l4 2914 130 98 c190 143 341 264
560 446 107 90 198 163 203 163 4 0 7 -30 7 -67 1 -38 3 -120 5 -183 50 -1207
58 -1537 46 -1711 -12 -164 -45 -439 -79 -661 l-18 -117 45 -6 c74 -10 74 -10
67 -58 -42 -288 -45 -563 -11 -967 49 -573 66 -828 71 -1065 6 -249 3 -297
-40 -680 -14 -121 -32 -303 -41 -405 -9 -102 -22 -257 -30 -345 -44 -488 -81
-1195 -68 -1318 l6 -54 -59 -6 c-33 -4 -122 -12 -199 -18 -77 -6 -150 -15
-163 -20 -56 -22 -33 -82 57 -151 139 -106 703 -348 810 -348 81 0 157 51 184
122 53 143 65 270 71 783 6 399 10 467 66 965 53 477 62 730 30 842 -11 39
-11 40 55 483 67 454 156 939 196 1068 24 80 43 102 101 118 44 11 196 5 210
-9 3 -4 13 -59 22 -122 22 -165 106 -722 126 -840 5 -30 24 -144 41 -254 17
-109 51 -278 76 -375 l45 -176 -6 -205 c-8 -297 -36 -816 -66 -1245 -11 -155
-37 -356 -51 -393 l-9 -24 -190 3 c-210 4 -227 0 -200 -47 45 -77 235 -140
465 -154 89 -5 193 -19 285 -39 153 -33 265 -40 292 -18 19 15 53 117 73 219
18 97 21 301 6 443 -6 61 -13 198 -16 305 -3 107 -15 364 -28 570 -17 283 -21
440 -18 640 8 455 6 1372 -3 1675 l-9 290 30 50 c20 35 38 52 59 58 27 8 31
14 32 48 2 50 27 109 45 109 8 0 14 6 14 13 -1 6 2 50 6 96 6 61 5 86 -3 91
-6 4 17 10 52 14 115 13 141 18 126 27 -11 7 -10 9 1 9 12 0 13 80 8 522 -7
604 -23 966 -88 1941 -16 247 -38 562 -49 700 -11 139 -23 293 -27 342 l-7 90
-17 -59 c-10 -32 -22 -63 -26 -67 -5 -5 -24 5 -43 22 -19 17 -62 51 -95 77
-33 25 -62 49 -65 52 -8 9 -249 163 -304 194 -80 46 -287 150 -345 174 -51 21
-67 22 -372 22 -334 0 -398 -6 -506 -49 -28 -11 -54 -16 -59 -11 -8 7 -325
-64 -459 -104 -5 -2 -23 -7 -39 -11 -36 -10 -101 -53 -101 -67 0 -5 -11 -15
-23 -22 -23 -12 -177 -151 -259 -234 -24 -23 -46 -42 -49 -42 -8 0 -140 -127
-247 -238 -39 -39 -75 -72 -81 -72 -5 0 -34 -26 -64 -57 -61 -64 -78 -71 -88
-40 -4 12 -5 1579 -3 3482 l4 3460 -23 100 c-13 55 -28 105 -32 110 -5 6 -8
12 -7 15 3 10 -46 130 -53 130 -3 0 -7 7 -7 15 0 24 -95 175 -144 226 -25 27
-43 49 -40 49 14 0 -95 100 -174 160 -74 55 -243 158 -252 152 -2 -1 -17 5
-35 12 -18 8 -53 19 -78 26 -25 6 -52 16 -62 20 -9 5 -66 16 -127 24 -99 14
-458 16 -3199 15 -1698 -1 -3119 -5 -3159 -10z m10467 -9329 c6 -129 27 -480
46 -780 18 -300 34 -564 34 -587 l0 -42 -77 -29 c-99 -38 -347 -117 -393 -126
l-35 -7 35 16 c19 9 53 24 75 35 22 10 69 32 105 48 93 43 145 91 165 152 15
45 17 134 17 883 0 825 5 897 28 437z m-33 -1912 c-2 -13 -4 -3 -4 22 0 25 2
35 4 23 2 -13 2 -33 0 -45z"/>
<path d="M16310 13495 l0 -45 448 0 c246 0 457 -3 470 -6 l22 -6 0 -489 0
-489 45 0 45 0 0 540 0 540 -515 0 -515 0 0 -45z"/>
<path d="M13100 12910 c-69 -27 -131 -49 -137 -50 -10 0 -13 -103 -13 -480 l0
-480 530 0 530 0 0 530 0 530 -392 0 -393 -1 -125 -49z m768 -474 c2 -264 -1
-373 -9 -382 -9 -11 -79 -14 -369 -14 -197 0 -365 3 -374 6 -14 5 -16 49 -16
385 l0 379 383 -2 382 -3 3 -369z"/>
<path d="M13258 12425 l-3 -225 228 0 227 0 0 225 0 225 -225 0 -224 0 -3
-225z"/>
<path d="M14170 12733 l0 -228 141 3 c97 2 145 -1 155 -9 9 -7 14 -31 14 -64
0 -89 8 -85 -161 -85 l-149 0 0 -75 0 -75 150 0 150 0 0 75 0 75 80 0 81 0 -3
-152 -3 -153 -30 -2 c-16 0 -49 -2 -72 -2 l-41 -1 -4 -70 -3 -70 73 0 72 0 1
60 c1 33 2 66 3 73 1 8 23 12 76 12 l75 0 5 -75 5 -75 70 0 70 0 3 -77 3 -78
74 0 75 0 0 75 c0 71 1 75 25 81 14 3 50 4 80 2 l55 -4 0 73 0 73 -62 2 c-35
0 -70 1 -78 2 -12 1 -15 16 -15 76 l0 75 78 3 77 3 0 74 0 74 -77 3 -78 3 -3
72 -3 72 33 6 c18 3 122 5 231 3 l197 -3 0 72 0 72 -147 3 -148 3 -3 153 -3
152 -74 0 -74 0 -3 -72 -3 -73 -152 -3 -153 -3 0 76 0 75 -75 0 -75 0 0 -75 0
-75 75 0 76 0 -3 -152 -3 -153 -75 0 -75 0 -3 70 c-2 38 -5 72 -7 74 -3 2 -69
4 -147 5 l-143 1 -3 153 -3 152 -74 0 -75 0 0 -227z m744 -229 c13 -5 16 -22
16 -80 l0 -74 -75 0 -75 0 0 74 c0 50 4 76 13 79 18 8 103 8 121 1z m14 -381
l-3 -78 -70 0 -70 0 -3 78 -3 77 76 0 76 0 -3 -77z m157 -153 l0 -75 -75 0
-75 0 -3 64 c-4 92 -4 92 80 89 l73 -3 0 -75z"/>
<path d="M15700 12430 l0 -530 530 0 530 0 0 530 0 530 -530 0 -530 0 0 -530z
m908 -2 l-3 -383 -362 -2 c-199 -2 -369 0 -377 3 -14 5 -16 49 -16 385 l0 379
380 0 380 0 -2 -382z"/>
<path d="M16203 12652 l-203 -2 0 -225 0 -225 230 0 230 0 0 228 0 227 -27 0
c-16 0 -119 -1 -230 -3z"/>
<path d="M12410 12646 l-35 -13 -3 -86 -3 -87 46 0 45 0 0 100 c0 55 -3 100
-7 99 -5 0 -24 -6 -43 -13z"/>
<path d="M15390 12275 l0 -75 75 0 75 0 0 75 0 75 -75 0 -75 0 0 -75z"/>
<path d="M21132 12132 l5 -70 -25 9 c-13 5 -34 7 -45 3 -17 -5 -19 -12 -14
-53 4 -25 9 -55 12 -67 6 -19 3 -21 -44 -21 -27 0 -57 -5 -65 -12 -22 -18 -20
-57 4 -96 20 -33 20 -33 1 -156 -29 -185 -42 -304 -40 -374 l2 -64 44 45 c34
35 49 45 71 42 25 -3 27 -6 27 -53 -1 -39 -10 -70 -42 -134 -48 -96 -49 -92
33 -207 46 -66 188 -204 209 -204 7 0 27 17 45 38 18 20 53 59 78 85 65 70
199 252 256 347 119 201 124 317 22 525 -53 106 -139 217 -263 336 -103 100
-161 136 -228 146 l-48 6 5 -71z"/>
<path d="M14188 12042 c-15 -3 -18 -15 -18 -73 l0 -69 75 0 75 0 0 70 0 70
-37 1 c-21 0 -47 2 -58 3 -11 1 -28 0 -37 -2z"/>
<path d="M15400 12042 c-6 -2 -10 -60 -10 -153 l0 -149 -75 0 -75 0 0 -75 0
-75 -155 0 -154 0 -3 -77 -3 -78 -72 -3 -73 -3 0 -150 0 -150 -77 3 -78 3 0
145 0 145 -75 5 -75 5 -3 153 -3 152 -529 0 -530 0 0 -75 0 -75 150 0 151 0
-3 -77 -3 -78 -147 -3 -147 -3 -3 -72 -3 -72 -75 0 -75 0 -3 153 -3 152 -74 0
-75 0 0 75 0 75 -75 0 -75 0 0 -685 0 -685 75 0 75 0 0 150 0 150 25 6 c13 3
47 4 75 2 l50 -3 0 73 0 72 -59 0 c-90 0 -91 1 -91 86 l0 74 75 0 75 0 0 75 0
75 75 0 c84 0 79 -7 76 92 -2 53 0 58 21 63 13 4 49 5 79 3 l54 -3 3 -77 3
-78 74 0 75 0 0 -75 0 -75 -75 0 -74 0 -3 -77 -3 -78 -72 -3 -73 -3 0 -149 0
-150 75 0 75 0 0 -75 0 -75 75 0 75 0 0 75 0 76 78 -3 77 -3 0 -70 0 -70 150
-5 150 -5 5 -380 5 -380 145 0 145 0 5 75 5 75 72 3 72 3 3 147 3 147 78 3 77
3 0 -151 0 -150 75 0 75 0 0 -80 0 -80 -75 0 -75 0 0 -75 0 -74 153 -3 152 -3
0 -70 0 -70 -152 -3 -153 -3 0 -74 0 -75 230 0 230 0 0 150 0 149 -77 3 -78 3
0 75 0 75 78 3 77 3 0 75 0 74 228 -2 227 -3 3 -75 3 -75 74 3 75 4 0 74 0 74
150 0 150 0 2 378 3 377 75 0 75 0 3 -147 3 -147 147 -3 147 -3 3 -77 3 -78
-76 0 -75 0 0 -230 0 -230 -230 0 -230 0 0 -75 0 -75 -75 0 -75 0 0 -75 0 -74
153 -3 152 -3 0 -73 0 -72 73 0 c50 0 72 4 73 13 0 6 0 31 -1 54 -3 85 -8 83
161 83 l149 0 0 -75 0 -75 75 0 75 0 0 380 0 380 -75 0 -75 0 0 75 0 75 75 0
75 0 0 75 0 74 -72 3 -73 3 -3 153 -3 152 76 0 75 0 0 150 0 150 -60 1 c-33 1
-66 2 -72 3 -9 1 -13 23 -13 76 l0 75 73 3 72 3 0 224 0 224 -72 3 -73 3 -3
78 -3 77 76 0 75 0 0 75 0 75 -225 0 -225 0 0 -75 0 -75 -80 0 -80 0 0 75 0
75 -75 0 -75 0 0 -75 0 -75 -75 0 -74 0 -3 -77 -3 -78 -54 -3 c-30 -2 -66 0
-79 3 l-23 6 3 149 3 149 -75 3 -75 3 -5 150 -5 150 -62 0 c-35 0 -67 -1 -73
-3z m-1385 -532 l0 -75 -54 -3 c-97 -6 -101 -2 -101 77 0 37 3 71 7 75 4 4 39
5 78 4 l70 -3 0 -75z m305 5 c0 -85 -2 -87 -95 -83 l-50 3 -3 78 -3 77 76 0
75 0 0 -75z m1228 -2 c3 -69 2 -73 -21 -78 -13 -4 -48 -5 -78 -3 l-54 3 -3 78
-3 78 78 -3 78 -3 3 -72z m-1378 -153 l0 -80 -74 0 -74 0 -7 40 c-4 22 -4 58
0 80 l7 40 74 0 74 0 0 -80z m1070 0 l5 -75 145 0 145 0 5 75 5 75 75 0 75 0
3 -72 3 -72 72 -3 72 -3 3 -77 3 -78 74 0 74 0 3 153 3 152 71 3 c87 3 82 13
81 -170 l-1 -133 227 -3 227 -2 0 -75 0 -75 -75 0 -75 0 0 -74 c0 -89 9 -85
-173 -83 l-132 2 -3 78 -3 77 -74 0 -75 0 0 -155 0 -155 -75 0 -75 0 0 75 0
75 -47 2 c-27 1 -59 2 -72 3 -28 1 -39 23 -40 82 -1 70 2 73 85 73 l74 0 0 75
0 75 -75 0 -75 0 0 -75 0 -75 -80 0 -80 0 0 75 0 75 -150 0 -150 0 0 -75 0
-75 -155 0 -155 0 0 -75 c0 -59 -3 -75 -15 -76 -8 -1 -19 -3 -25 -4 -5 -1 -66
-3 -135 -4 l-125 -1 0 -150 0 -150 -80 0 -80 0 0 75 0 74 -72 3 -73 3 0 75 0
75 73 3 72 3 0 74 0 75 -75 0 -75 0 0 -80 0 -80 -72 2 -73 3 -3 77 -3 77 -77
3 -77 3 -3 73 -3 72 80 0 80 0 3 78 3 77 138 3 c97 2 143 -1 153 -9 10 -8 14
-30 12 -78 l-3 -66 78 -3 77 -3 0 -74 0 -75 150 0 150 0 0 149 c0 170 -5 161
91 161 l59 0 0 68 c0 38 3 72 7 76 4 4 39 5 78 4 l70 -3 5 -75z m1370 0 l0
-80 -149 0 -149 0 -7 40 c-4 22 -4 58 0 80 l7 40 149 0 149 0 0 -80z m-3361
-79 c10 -6 12 -25 8 -72 -3 -35 -6 -67 -6 -71 -1 -5 -35 -8 -76 -8 l-75 0 0
73 c0 41 3 77 7 80 9 10 126 8 142 -2z m769 -50 c6 -106 14 -101 -158 -101
l-150 0 0 73 c0 41 3 77 7 81 4 3 72 5 152 4 l146 -3 3 -54z m0 -325 c3 -81
-1 -87 -73 -85 -85 2 -85 2 -85 78 0 37 3 71 7 75 4 4 39 5 78 4 l70 -3 3 -69z
m-308 -231 l0 -155 -75 0 -75 0 0 155 0 155 75 0 75 0 0 -155z m292 -1 c15 -4
18 -17 18 -80 l0 -75 -77 3 -78 3 -3 69 c-2 39 1 72 7 75 14 9 110 13 133 5z
m318 -154 l0 -161 -72 3 -73 3 -3 149 c-1 87 1 152 7 155 5 4 39 8 75 9 l66 3
0 -161z m908 151 c9 -5 12 -48 10 -157 l-3 -149 -35 -3 c-19 -2 -54 -1 -77 3
l-43 6 0 75 0 74 -75 0 -74 0 -3 -77 -3 -78 -138 -3 c-96 -2 -143 1 -153 9 -9
7 -14 31 -14 64 0 84 1 85 86 85 l74 0 0 74 c0 50 4 76 13 80 19 8 422 5 435
-3z m620 -74 l3 -78 -78 3 -78 3 -3 63 c-4 85 4 94 87 90 l66 -3 3 -78z m303
62 c5 -11 9 -45 7 -77 l-3 -57 -77 -3 -78 -3 0 75 c0 50 4 76 13 79 6 2 38 4
70 5 47 0 59 -4 68 -19z m457 -62 l3 -77 -76 0 -75 0 0 74 c0 50 4 76 13 80 6
3 39 4 72 3 l60 -3 3 -77z m-2134 -243 c9 -23 7 -117 -3 -132 -5 -9 -28 -12
-77 -10 l-69 3 -3 64 c-2 35 -1 70 2 77 8 21 142 19 150 -2z m611 -139 l0
-150 -152 -3 -152 -3 -7 25 c-3 13 -4 48 -2 77 l4 54 77 3 77 3 0 68 c0 37 3
71 7 75 4 4 39 5 78 4 l70 -3 0 -150z m915 -75 l0 -230 -230 0 -230 0 0 223
c0 123 3 227 7 230 3 4 107 7 230 7 l223 0 0 -230z m-630 75 c18 -6 20 -16 20
-81 l0 -74 -75 0 -74 0 -3 -152 -3 -153 -150 0 -150 0 -3 78 -3 77 75 0 75 0
3 73 3 72 78 3 77 3 0 73 c0 40 2 75 5 78 8 7 104 10 125 3z m-895 -230 l0
-70 -77 -3 -78 -3 0 76 0 76 78 -3 77 -3 0 -70z m1833 -607 l-3 -73 -77 -3
-78 -3 0 76 0 75 80 0 81 0 -3 -72z"/>
<path d="M15700 10135 l0 -75 75 0 75 0 0 75 0 75 -75 0 -75 0 0 -75z"/>
<path d="M18271 11965 c-160 -43 -175 -49 -168 -78 3 -12 15 -91 27 -175 l21
-152 -22 -88 c-22 -83 -32 -222 -17 -237 3 -4 24 11 46 33 86 86 210 167 228
149 3 -2 -22 -62 -56 -132 -34 -70 -59 -129 -57 -132 8 -7 242 49 255 61 14
14 8 88 -38 496 -6 47 -15 131 -22 188 l-11 102 -31 -1 c-17 -1 -87 -16 -155
-34z"/>
<path d="M8950 11551 c-122 -23 -239 -88 -321 -179 -61 -69 -132 -210 -159
-314 -30 -122 -41 -226 -50 -483 -11 -324 -21 -357 -160 -566 -45 -68 -97
-153 -115 -189 -48 -95 -115 -312 -115 -372 0 -13 -21 -52 -46 -88 -25 -36
-65 -94 -90 -130 -24 -36 -52 -76 -63 -90 -11 -13 -17 -28 -15 -32 3 -4 1 -8
-4 -8 -8 0 -50 -62 -72 -105 -11 -22 -85 -130 -94 -136 -4 -4 -3 -10 3 -13 19
-12 31 -43 17 -43 -7 0 -13 7 -12 16 0 9 -4 16 -11 16 -17 0 -65 -74 -57 -88
4 -7 4 -9 -1 -5 -7 7 -125 -171 -125 -187 0 -3 -12 -24 -26 -46 -14 -23 -21
-38 -15 -35 7 4 8 1 5 -8 -3 -9 -10 -14 -14 -11 -4 3 -14 -10 -21 -28 -7 -17
-21 -42 -30 -55 -10 -13 -21 -36 -24 -52 -4 -17 -11 -30 -16 -30 -6 0 -7 -4
-4 -10 3 -5 1 -10 -4 -10 -6 0 -11 -5 -11 -10 0 -6 -11 -28 -25 -51 -14 -22
-23 -43 -21 -48 3 -5 -3 -19 -14 -31 -11 -13 -21 -27 -21 -32 -3 -18 -5 -24
-23 -56 -9 -19 -15 -40 -12 -48 3 -8 2 -13 -3 -9 -12 7 -19 -14 -13 -42 3 -18
99 -103 116 -103 3 0 31 -16 61 -35 31 -20 60 -33 65 -30 6 4 9 2 8 -5 -5 -19
555 -326 574 -314 7 4 8 3 4 -4 -8 -14 30 -35 47 -26 6 4 9 4 5 -1 -5 -4 16
-20 45 -35 28 -15 103 -53 165 -84 105 -54 142 -84 114 -94 -7 -2 -12 -16 -12
-31 0 -15 -4 -31 -9 -36 -16 -19 -43 -138 -48 -214 -3 -43 2 -137 12 -216 9
-77 19 -160 22 -185 2 -25 9 -49 14 -55 5 -5 9 -20 9 -35 0 -20 2 -22 11 -10
8 12 9 11 5 -5 -3 -11 -14 -72 -25 -135 -11 -63 -32 -180 -46 -260 -14 -80
-38 -235 -55 -345 -16 -110 -34 -229 -40 -265 -57 -346 -134 -1089 -147 -1402
-6 -157 -6 -158 15 -158 25 0 25 -2 13 -50 -6 -19 -12 -64 -15 -100 -3 -36 -8
-74 -11 -85 -3 -11 -10 -67 -15 -125 -9 -112 -16 -167 -25 -215 -3 -16 -7 -50
-9 -75 -2 -25 -6 -52 -9 -60 -8 -20 -20 -140 -21 -212 -1 -31 -4 -51 -8 -45
-4 7 -8 -17 -8 -53 0 -36 -5 -81 -10 -102 -6 -20 -12 -53 -15 -75 -2 -21 -11
-83 -20 -137 -9 -55 -14 -105 -11 -111 2 -7 0 -17 -5 -22 -5 -5 -11 -30 -12
-54 -2 -24 -6 -50 -11 -57 -4 -7 -4 -21 -1 -32 4 -11 2 -20 -3 -20 -5 0 -13
-21 -17 -47 -4 -27 -13 -66 -21 -89 -8 -23 -15 -57 -16 -77 -2 -21 -6 -37 -10
-37 -5 0 -8 -12 -8 -26 0 -14 -4 -33 -9 -42 -5 -9 -11 -30 -14 -47 -3 -16 -14
-53 -25 -81 -12 -29 -18 -62 -16 -75 4 -17 3 -20 -4 -11 -7 11 -12 6 -20 -17
-6 -18 -9 -39 -6 -49 4 -12 3 -13 -3 -4 -7 9 -13 5 -22 -15 -20 -45 -175 -262
-187 -263 -5 0 -26 -16 -45 -36 -55 -58 -154 -124 -289 -194 -130 -67 -150
-88 -108 -112 33 -18 277 -15 398 6 107 19 247 59 302 87 49 25 61 50 103 216
20 76 39 141 44 146 9 9 31 -179 31 -265 0 -57 0 -58 29 -58 34 0 29 -20 56
235 9 83 20 168 25 190 11 48 12 132 1 160 -7 17 -8 17 -14 -8 -5 -18 -28 -40
-70 -68 -34 -23 -99 -80 -145 -126 -84 -85 -100 -97 -84 -65 5 9 15 42 22 72
7 30 16 60 20 65 4 6 11 21 15 35 4 14 20 52 35 85 16 33 33 89 39 125 25 145
63 385 86 540 13 91 36 237 51 325 15 88 27 180 28 205 1 26 5 50 8 56 4 5 16
63 28 129 40 229 71 364 98 432 23 61 84 154 156 237 107 126 151 161 208 170
82 12 1078 192 1177 212 33 7 34 7 26 -22 -18 -71 -28 -151 -27 -224 1 -77 2
-88 13 -118 8 -22 12 -24 21 -12 8 12 9 12 4 -3 -3 -9 -9 -24 -13 -34 -5 -12
-3 -14 7 -8 10 6 12 2 7 -16 -7 -25 8 -129 23 -164 5 -11 11 -47 14 -80 8
-103 18 -170 28 -181 4 -6 10 -45 13 -85 6 -101 15 -177 26 -219 4 -19 11 -66
14 -105 4 -38 13 -117 21 -175 9 -58 17 -121 19 -140 2 -19 8 -66 15 -105 17
-108 39 -319 46 -430 3 -55 8 -104 11 -109 9 -13 3 -179 -6 -191 -5 -5 -9 -31
-9 -57 -1 -26 -8 -58 -16 -70 -21 -33 -46 -143 -46 -209 0 -142 76 -319 203
-471 65 -78 78 -74 133 34 57 114 68 172 66 348 0 85 -7 184 -15 220 l-13 65
-7 -95 c-8 -115 -27 -189 -61 -241 -28 -42 -45 -43 -80 -5 -28 32 -72 134 -85
201 -6 33 -16 146 -22 250 -5 105 -16 237 -24 295 -8 58 -16 132 -20 165 -7
80 -42 405 -56 530 -6 55 -11 109 -11 120 0 21 -17 185 -23 222 -2 12 -7 74
-11 138 -4 64 -10 112 -13 107 -3 -5 -7 27 -8 72 -2 44 -9 160 -16 256 l-13
175 28 82 c15 46 45 109 65 140 42 68 143 205 157 215 5 3 30 9 55 13 78 12
77 10 85 147 3 68 14 265 23 438 24 453 25 1450 0 1750 -33 414 -58 600 -96
738 -20 75 -56 157 -71 167 -5 3 -37 -8 -72 -26 -34 -17 -101 -46 -148 -64
-91 -36 -321 -108 -326 -102 -2 1 36 22 84 46 194 98 312 196 312 259 0 13
-13 70 -30 126 -60 207 -130 478 -130 504 0 15 20 126 44 247 24 121 58 298
76 393 18 95 35 171 37 168 4 -4 -24 -387 -31 -418 -8 -38 28 -15 119 75 l95
92 20 -22 c11 -13 17 -23 14 -23 -3 0 11 -23 31 -50 20 -28 38 -57 39 -65 1
-8 6 -18 11 -22 4 -4 5 -2 1 5 -4 6 -5 12 -2 12 3 0 10 -10 17 -21 7 -14 7
-19 0 -15 -6 4 26 -52 70 -124 47 -76 85 -127 91 -123 7 3 8 1 4 -5 -7 -11 49
-100 72 -115 6 -4 12 -16 12 -25 1 -26 46 -76 60 -67 9 5 11 4 6 -4 -8 -13 6
-38 48 -86 35 -41 33 -28 -10 50 -32 58 -38 64 -53 53 -14 -12 -14 -11 -3 4
11 14 7 33 -32 130 -25 62 -57 149 -71 193 -14 44 -29 87 -32 95 -3 8 -7 20
-9 27 -1 7 -11 43 -23 80 -31 104 -59 213 -66 266 -4 26 -12 47 -17 47 -5 0
-7 4 -4 9 3 5 3 23 0 39 -4 21 -10 28 -18 22 -6 -5 -27 -23 -47 -40 -20 -16
-39 -30 -43 -30 -3 0 -6 45 -6 99 0 182 -65 382 -199 612 l-44 76 -81 7 c-97
7 -306 -3 -323 -16 -6 -5 -14 -21 -18 -35 -20 -83 -127 -259 -218 -362 -54
-61 -178 -181 -198 -192 -23 -12 -25 -2 -4 21 13 14 9 23 -36 85 -120 169
-169 262 -177 338 -5 56 15 111 54 142 89 72 112 101 119 150 4 28 16 71 25
98 l18 47 -24 6 c-13 3 -35 7 -48 8 -13 0 -22 4 -20 7 2 4 -6 10 -19 13 -12 3
-44 36 -72 73 -27 36 -64 85 -82 109 -18 24 -35 54 -39 68 -3 14 -10 26 -15
26 -5 0 -9 6 -9 14 0 8 -16 34 -36 58 -52 62 -110 149 -117 177 -9 36 9 71 36
71 13 0 28 -5 35 -12 6 -6 14 -9 18 -6 3 3 -2 64 -10 135 -23 187 -22 209 13
244 52 51 128 38 238 -41 48 -34 63 -40 108 -40 64 0 107 17 172 69 l51 40 28
-31 c16 -16 66 -59 112 -95 77 -61 82 -67 77 -97 -2 -17 -12 -87 -21 -156 -42
-321 -117 -507 -241 -593 l-45 -32 5 -87 c6 -111 19 -134 84 -144 49 -7 229 0
373 16 114 12 323 12 354 0 33 -12 120 -171 269 -490 l16 -35 -5 70 c-18 241
-94 466 -213 630 -219 301 -285 467 -335 850 -30 225 -111 392 -257 529 -78
74 -134 110 -228 143 -73 27 -204 38 -281 24z m-1227 -2626 c-3 -9 -8 -14 -10
-11 -3 3 -2 9 2 15 9 16 15 13 8 -4z m27 -19 c0 -3 -4 -8 -10 -11 -5 -3 -10
-1 -10 4 0 6 5 11 10 11 6 0 10 -2 10 -4z m196 -153 c21 -32 45 -70 53 -85 8
-16 18 -28 22 -28 4 0 34 34 67 75 l61 74 37 -67 c76 -136 189 -271 283 -335
27 -19 44 -51 109 -207 l77 -185 -12 -80 c-78 -531 -107 -705 -127 -790 -13
-55 -23 -102 -21 -105 6 -10 63 -293 69 -345 14 -117 -32 -91 -105 61 -111
233 -113 253 -33 493 8 24 13 45 12 46 -2 1 -25 16 -52 33 -33 21 -57 30 -70
26 -14 -3 -17 -2 -8 4 9 6 5 12 -15 23 -45 24 -237 138 -250 149 -7 5 -15 10
-18 10 -4 0 -82 46 -173 103 -92 56 -175 107 -184 112 -91 53 -148 90 -148 97
0 4 -5 8 -12 8 -17 0 -239 140 -244 155 -4 11 55 151 88 210 7 11 23 40 36 65
124 226 326 455 457 516 28 13 53 24 56 24 3 0 24 -26 45 -57z m491 -2065 c-3
-7 -5 -2 -5 12 0 14 2 19 5 13 2 -7 2 -19 0 -25z m1290 -2780 c-3 -8 -6 -5 -6
6 -1 11 2 17 5 13 3 -3 4 -12 1 -19z m-1610 -70 c-3 -8 -6 -5 -6 6 -1 11 2 17
5 13 3 -3 4 -12 1 -19z m1850 -2340 c-3 -8 -6 -5 -6 6 -1 11 2 17 5 13 3 -3 4
-12 1 -19z m-2294 -13 c-3 -9 -8 -14 -10 -11 -3 3 -2 9 2 15 9 16 15 13 8 -4z
m37 -79 c0 -2 -8 -10 -17 -17 -16 -13 -17 -12 -4 4 13 16 21 21 21 13z m-146
-32 c3 -8 2 -12 -4 -9 -6 3 -10 10 -10 16 0 14 7 11 14 -7z m2501 -133 c-6 -5
-25 10 -25 20 0 5 6 4 14 -3 8 -7 12 -15 11 -17z"/>
<path d="M11235 10599 c-2 -8 -36 -141 -75 -296 -39 -155 -73 -288 -75 -296
-3 -7 21 -49 55 -92 33 -42 60 -76 60 -73 0 3 -9 47 -19 99 -29 140 -35 203
-21 228 9 19 14 20 27 10 19 -16 62 -104 98 -199 27 -71 54 -120 42 -75 -10
34 -20 351 -13 389 20 107 67 -33 119 -359 l12 -79 33 109 c91 311 133 467
130 486 -2 17 -24 31 -98 62 -52 21 -120 50 -151 63 -77 33 -117 40 -124 23z"/>
<path d="M12950 9680 l0 -530 533 0 532 0 0 530 0 530 -532 0 -533 0 0 -530z
m915 0 l0 -375 -382 -3 -383 -2 0 380 0 380 383 -2 382 -3 0 -375z"/>
<path d="M13260 9890 c-1 -11 -1 -105 -1 -210 0 -104 0 -199 1 -210 0 -19 7
-20 225 -20 l225 0 0 230 0 230 -225 0 c-218 0 -225 -1 -225 -20z"/>
<path d="M11046 9846 c-22 -88 -21 -95 17 -110 92 -38 93 -36 38 87 l-38 88
-17 -65z"/>
<path d="M15549 9555 c-1 -25 -1 -52 -1 -60 0 -45 0 -45 71 -45 69 0 70 0 73
28 2 15 1 48 0 75 l-4 47 -69 0 -69 0 -1 -45z"/>
<path d="M12370 9060 l0 -490 515 0 515 0 0 45 0 45 -460 0 c-448 0 -460 0
-470 20 -7 13 -10 158 -8 445 l3 425 -47 0 -48 0 0 -490z"/>
<path d="M17250 9117 c0 -323 -3 -436 -12 -445 -9 -9 -127 -12 -470 -12 l-458
0 0 -45 0 -45 515 0 515 0 0 490 0 490 -45 0 -45 0 0 -433z"/>
<path d="M14170 9225 l0 -75 75 0 75 0 0 75 0 75 -75 0 -75 0 0 -75z"/>
<path d="M15390 9225 l0 -75 153 0 152 0 -2 72 -1 73 -151 3 -151 3 0 -76z"/>
<path d="M5420 6396 c0 -8 35 -83 78 -167 91 -180 135 -277 238 -524 14 -33
29 -69 34 -80 5 -11 29 -74 55 -140 26 -66 53 -136 60 -155 8 -19 23 -62 35
-95 11 -33 24 -69 29 -80 17 -39 41 -111 41 -123 0 -19 -29 -14 -156 27 -250
82 -419 131 -451 131 -28 0 -2 -18 34 -25 21 -4 76 -18 123 -32 95 -28 190
-54 205 -57 6 -1 15 -4 20 -7 6 -3 63 -23 127 -44 l117 -39 65 -200 c84 -262
206 -675 236 -801 9 -39 5 -40 -145 -9 -130 26 -319 62 -515 99 -107 19 -203
37 -212 39 -10 2 -18 1 -18 -4 0 -8 24 -13 295 -65 99 -18 266 -50 370 -71
105 -20 201 -38 213 -40 13 -1 25 -4 26 -6 4 -4 120 -481 141 -578 9 -41 25
-111 36 -154 22 -93 24 -122 7 -129 -7 -2 -65 0 -128 4 -63 5 -213 16 -333 25
-193 14 -241 14 -226 0 5 -4 586 -46 644 -46 22 0 46 -4 53 -9 18 -11 35 -86
87 -391 25 -146 50 -278 55 -294 6 -16 10 -42 10 -58 0 -19 4 -28 13 -25 17 6
10 93 -19 252 -14 72 -31 164 -39 205 -12 67 -65 320 -111 536 l-18 81 23 29
c12 16 44 54 71 84 119 137 198 235 194 240 -6 5 -22 -13 -104 -110 -164 -196
-168 -200 -183 -200 -7 0 -23 47 -41 123 -40 170 -119 481 -156 612 -16 61
-39 144 -50 185 -11 41 -25 77 -30 78 -6 2 -8 8 -5 12 5 8 -12 74 -50 190 -8
25 -15 55 -15 68 0 13 32 65 73 120 41 53 93 126 117 162 24 36 50 71 57 79 8
7 23 32 35 55 11 22 32 59 47 81 38 59 75 134 68 141 -3 4 -12 -9 -20 -27 -8
-19 -35 -68 -61 -109 -25 -41 -46 -80 -46 -88 0 -7 -4 -11 -8 -8 -5 3 -19 -14
-32 -37 -13 -23 -59 -91 -103 -152 -44 -60 -91 -124 -104 -142 -23 -32 -53
-36 -53 -8 0 22 -126 395 -201 595 -66 174 -90 236 -127 320 -9 19 -16 37 -16
40 -1 5 -13 33 -58 137 -10 23 -18 46 -18 50 0 5 -8 20 -17 33 -10 14 -18 29
-18 35 0 5 -9 28 -19 50 -84 179 -101 211 -110 217 -6 4 -8 8 -3 8 11 0 -92
200 -103 200 -6 0 -10 -6 -10 -14z"/>
<path d="M12370 5190 l0 -610 2485 0 2485 0 0 610 0 610 -2485 0 -2485 0 0
-610z m1754 266 l37 -15 -16 -38 c-21 -49 -19 -48 -64 -35 -43 13 -110 16
-127 4 -20 -13 -25 -44 -11 -66 8 -12 36 -32 63 -45 123 -59 154 -96 154 -182
0 -46 -4 -55 -38 -89 -23 -24 -55 -43 -82 -50 -51 -14 -152 -8 -192 10 -25 12
-28 18 -28 66 l0 52 50 -19 c55 -21 130 -25 161 -9 12 7 19 21 19 41 0 24 -8
35 -47 59 -26 17 -52 30 -58 30 -21 0 -80 51 -102 88 -27 44 -29 77 -6 133 13
34 26 46 67 66 43 20 61 23 117 19 37 -2 83 -12 103 -20z m514 2 c36 -14 39
-24 16 -72 l-17 -34 -40 14 c-63 22 -120 18 -156 -12 -36 -30 -51 -77 -51
-157 0 -70 18 -116 56 -146 25 -20 37 -22 94 -18 36 3 77 9 93 12 26 7 27 6
27 -37 0 -39 -4 -46 -27 -57 -81 -37 -237 -17 -289 37 -87 90 -99 287 -23 391
53 74 122 104 219 97 36 -3 80 -11 98 -18z m427 10 c4 -5 185 -514 185 -521 0
-4 -27 -7 -60 -7 l-60 0 -17 60 -18 61 -100 -3 -99 -3 -16 -55 -16 -55 -62 -3
c-34 -2 -62 -1 -62 2 0 3 4 15 10 28 5 13 46 129 91 258 45 129 86 237 90 240
8 5 129 4 134 -2z m536 -175 c56 -98 108 -186 114 -195 9 -13 10 30 7 178 l-5
195 54 -3 54 -3 0 -260 0 -260 -71 -3 -71 -3 -109 190 c-60 105 -111 191 -114
191 -3 0 -4 -85 -2 -190 l4 -190 -51 0 -51 0 0 265 0 265 69 0 69 0 103 -177z"/>
<path d="M14962 5276 c-18 -57 -32 -107 -32 -110 0 -3 29 -6 65 -6 42 0 65 4
65 11 0 14 -60 209 -64 209 -1 0 -17 -47 -34 -104z"/>
<path d="M7370 5766 c0 -5 16 -49 36 -99 55 -138 74 -245 74 -427 0 -223 -26
-387 -117 -745 -25 -99 -50 -199 -55 -222 -5 -24 -15 -43 -21 -43 -8 0 -12
-20 -13 -52 0 -44 -16 -132 -70 -386 -2 -13 -8 -21 -12 -18 -4 2 -8 -35 -8
-83 -1 -47 -11 -133 -23 -191 -41 -198 -72 -332 -81 -348 -5 -10 -24 -69 -41
-132 -50 -183 -172 -546 -199 -592 -5 -10 -10 -25 -10 -33 0 -9 -9 -33 -20
-55 -24 -47 -27 -68 -7 -51 8 6 26 43 41 83 16 40 34 87 41 103 42 96 169 486
199 615 32 131 75 326 82 365 4 22 9 45 13 50 3 6 6 24 7 40 11 181 130 766
161 792 8 6 10 14 5 17 -5 3 8 74 29 158 74 294 119 554 119 687 0 32 5 62 12
69 9 9 10 15 2 20 -7 4 -17 48 -23 97 -15 109 -34 188 -67 275 -26 67 -53 122
-54 106z"/>
<path d="M7591 5544 c0 -11 3 -14 6 -6 3 7 2 16 -1 19 -3 4 -6 -2 -5 -13z"/>
<path d="M4610 5296 c0 -3 153 -198 198 -251 33 -39 204 -271 219 -295 9 -17
21 -30 25 -30 4 0 8 -7 8 -15 0 -24 15 -27 -415 65 -137 29 -172 34 -160 22 6
-6 78 -24 160 -41 83 -17 204 -42 270 -56 66 -14 135 -29 153 -32 19 -3 38
-15 44 -27 6 -11 16 -26 22 -32 6 -6 49 -68 95 -137 64 -96 87 -124 97 -116
10 8 6 21 -19 57 -18 26 -35 49 -38 52 -4 3 -23 30 -43 60 -39 59 -164 239
-195 280 -107 141 -227 297 -236 305 -6 6 -24 28 -40 50 -52 72 -119 145 -132
145 -7 0 -13 -2 -13 -4z"/>
<path d="M5406 4560 c-4 -19 -10 -57 -15 -85 -10 -56 -8 -67 8 -36 18 33 32
121 22 139 -7 13 -11 9 -15 -18z"/>
<path d="M5789 3597 c11 -18 26 -45 34 -61 14 -26 16 -26 22 -7 7 24 -18 76
-44 91 -32 16 -34 12 -12 -23z"/>
<path d="M14095 3155 c-22 -7 -52 -16 -67 -19 -38 -9 -106 -81 -136 -145 -35
-76 -35 -183 0 -261 35 -77 73 -119 138 -149 l55 -26 729 -3 c801 -3 794 -3
870 57 47 38 99 109 92 126 -2 7 1 16 9 19 8 3 14 13 14 23 4 165 3 175 -26
230 -33 66 -94 121 -161 145 -43 16 -112 17 -762 17 -568 -1 -723 -3 -755 -14z"/>
<path d="M5210 2950 c0 -6 72 -10 196 -10 127 0 193 3 189 10 -4 6 -80 10
-196 10 -119 0 -189 -4 -189 -10z"/>
<path d="M6328 2651 c15 -27 29 -48 32 -46 3 2 6 -5 7 -15 1 -10 12 -35 26
-57 13 -21 27 -47 31 -58 16 -43 118 -205 126 -200 13 8 8 18 -89 209 -86 169
-118 216 -144 216 -11 0 -9 -12 11 -49z"/>
</g>
</svg>
